<?xml version="1.0" encoding="UTF-8"?>
<svg width="1200" height="630" viewBox="0 0 1200 630" fill="none" xmlns="http://www.w3.org/2000/svg">
  <rect width="1200" height="630" fill="#000000"/>
  <g transform="translate(460,165) scale(1)">
    <path d="M260 92V68C260 63.5817 256.418 60 252 60H167.368C163.113 60 159.176 62.253 157.021 65.9214L139.319 96.0524C137.882 98.498 135.258 100 132.422 100H28C23.5817 100 20 103.582 20 108V132C20 136.418 23.5817 140 28 140H107.632C111.887 140 115.824 137.747 117.979 134.079L135.681 103.948C137.118 101.502 139.742 100 142.578 100H252C256.418 100 260 96.4183 260 92Z" fill="url(#paint0_linear_53_15)"/>
    <path d="M220 172V148C220 143.582 216.418 140 212 140H121.368C117.113 140 113.176 142.253 111.021 145.921L93.3192 176.052C91.8824 178.498 89.258 180 86.4215 180H28C23.5817 180 20 183.582 20 188V212C20 216.418 23.5817 220 28 220H61.6323C65.887 220 69.8236 217.747 71.9788 214.079L89.6808 183.948C91.1176 181.502 93.742 180 96.5785 180H212C216.418 180 220 176.418 220 172Z" fill="url(#paint1_linear_53_15)"/>
  </g>
  <text x="600" y="450" text-anchor="middle" font-family="Arial" font-size="48" font-weight="bold" fill="white">Fluid React Native</text>
  <text x="600" y="500" text-anchor="middle" font-family="Arial" font-size="24" fill="#666">Biblioteca de componentes UI implementando o Design System Fluid</text>
  <defs>
    <linearGradient id="paint0_linear_53_15" x1="20" y1="75.0271" x2="229.793" y2="70.1496" gradientUnits="userSpaceOnUse">
      <stop stop-color="#FFCF0D"/>
      <stop offset="1" stop-color="#0DFF86"/>
    </linearGradient>
    <linearGradient id="paint1_linear_53_15" x1="20" y1="75.0271" x2="229.793" y2="70.1496" gradientUnits="userSpaceOnUse">
      <stop stop-color="#FFCF0D"/>
      <stop offset="1" stop-color="#0DFF86"/>
    </linearGradient>
  </defs>
</svg> 